[img]http://img17.imageshack.us/img17/4059/darkman1990.jpg[/img]

[b][size=200][color=black]PLOT[/color][/size][/b]

[code]A hideously scarred and mentally unstable scientist seeks 
revenge against the crooks who made him like that. [/code]

[b][size=200][color=black]IMDB[/color][/size][/b]

[code]http://www.imdb.com/title/tt0099365/[/code]

[b][size=200][color=black]MOVIE INFO[/color][/size][/b]

[code]Darkman [1990] DVDRip x264 AAC-V3nom

Format                                   : MPEG-4
Format profile                           : Base Media / Version 2
Codec ID                                 : mp42
File size                                : 348 MiB
Duration                                 : 1h 35mn
Overall bit rate mode                    : Variable
Overall bit rate                         : 511 Kbps
Encoded date                             : UTC 2012-12-04 19:22:43
Tagged date                              : UTC 2012-12-04 20:07:01

Video
ID                                       : 1
Format                                   : AVC
Format/Info                              : Advanced Video Codec
Format profile                           : Main@L3.0
Format settings, CABAC                   : Yes
Format settings, ReFrames                : 4 frames
Codec ID                                 : avc1
Codec ID/Info                            : Advanced Video Coding
Duration                                 : 1h 35mn
Bit rate mode                            : Variable
Bit rate                                 : 381 Kbps
Width                                    : 640 pixels
Height                                   : 348 pixels
Display aspect ratio                     : 1.85:1
Frame rate mode                          : Variable
Frame rate                               : 29.889 fps
Minimum frame rate                       : 0.319 fps
Maximum frame rate                       : 29.970 fps
Color space                              : YUV
Chroma subsampling                       : 4:2:0
Bit depth                                : 8 bits
Scan type                                : Progressive
Bits/(Pixel*Frame)                       : 0.057
Stream size                              : 258 MiB (74%)
Writing library                          : x264 core 112

Audio
ID                                       : 2
Format                                   : AAC
Format/Info                              : Advanced Audio Codec
Format profile                           : LC
Codec ID                                 : 40
Duration                                 : 1h 35mn
Bit rate mode                            : Variable
Bit rate                                 : 128 Kbps
Maximum bit rate                         : 270 Kbps
Channel(s)                               : 2 channels
Channel positions                        : Front: L R
Sampling rate                            : 44.1 KHz
Compression mode                         : Lossy
Delay relative to video                  : 1s 201ms
Stream size                              : 87.1 MiB (25%)
Encoded date                             : UTC 2012-12-04 19:22:43
Tagged date                              : UTC 2012-12-04 20:06:56[/code]

[b][size=200][color=black]SCREENSHOTS[/color][/size][/b]

[img]http://img833.imageshack.us/img833/1006/darkman1990dvdripx264aa.jpg[/img]

[img]http://kastatic.com/i2/users/133df62bbf28e62494bb17fe11078f1a.gif[/img][img]http://kastatic.com/i2/users/133df62bbf28e62494bb17fe11078f1a.gif[/img]